<?xml version="1.0" encoding="UTF-8" standalone="no"?>
<!-- Created with Inkscape (http://www.inkscape.org/) -->

<svg
   width="720.23431mm"
   height="126.67556mm"
   viewBox="0 0 720.23431 126.67556"
   version="1.1"
   id="svg5"
   inkscape:version="1.2 (dc2aedaf03, 2022-05-15)"
   sodipodi:docname="filemirror.svg"
   xmlns:inkscape="http://www.inkscape.org/namespaces/inkscape"
   xmlns:sodipodi="http://sodipodi.sourceforge.net/DTD/sodipodi-0.dtd"
   xmlns="http://www.w3.org/2000/svg"
   xmlns:svg="http://www.w3.org/2000/svg"
   xmlns:rdf="http://www.w3.org/1999/02/22-rdf-syntax-ns#"
   xmlns:cc="http://creativecommons.org/ns#"
   xmlns:dc="http://purl.org/dc/elements/1.1/">
  <title
     id="title2299">filemirror logo</title>
  <sodipodi:namedview
     id="namedview7"
     pagecolor="#505050"
     bordercolor="#eeeeee"
     borderopacity="1"
     inkscape:showpageshadow="false"
     inkscape:pageopacity="0"
     inkscape:pagecheckerboard="false"
     inkscape:deskcolor="#505050"
     inkscape:document-units="mm"
     showgrid="false"
     showguides="true"
     borderlayer="true"
     shape-rendering="auto"
     inkscape:zoom="0.2973261"
     inkscape:cx="312.78788"
     inkscape:cy="248.88498"
     inkscape:window-width="2560"
     inkscape:window-height="1029"
     inkscape:window-x="1920"
     inkscape:window-y="24"
     inkscape:window-maximized="1"
     inkscape:current-layer="layer1">
    <sodipodi:guide
       position="95.16353,0.13337814"
       orientation="0,-1"
       id="guide2295"
       inkscape:locked="false" />
  </sodipodi:namedview>
  <defs
     id="defs2">
    <rect
       x="61.834293"
       y="64.687531"
       width="2667.8865"
       height="769.11621"
       id="rect70" />
  </defs>
  <g
     inkscape:label="Layer 1"
     inkscape:groupmode="layer"
     id="layer1"
     transform="translate(-18.6961,-61.577587)">
    <path
       d="M 75.346043,185.80403 H 87.785497 V 93.852928 H 75.346043 Z"
       id="path2035"
       style="font-size:192px;line-height:1.25;font-family:'URW Gothic';-inkscape-font-specification:'URW Gothic';letter-spacing:5.21px;white-space:pre;stroke-width:0.875525" />
    <path
       d="M 32.984662,185.80403 H 45.424116 V 105.11568 H 68.285812 V 93.852928 H 45.424116 C 45.256016,78.387661 51.307638,73.008437 68.285812,72.840336 V 61.577587 c -23.702199,0 -35.637351,10.926548 -35.30115,32.275341 H 18.6961 v 11.262752 h 14.288562 z"
       id="path282"
       sodipodi:nodetypes="ccccccccccccc"
       style="font-size:192px;line-height:1.25;font-family:'URW Gothic';-inkscape-font-specification:'URW Gothic';letter-spacing:5.21px;white-space:pre;stroke-width:0.875525" />
    <path
       d="m 131.95922,141.26769 h -12.43945 l 0.084,-49.425088 c 0.084,-13.364008 -5.96758,-18.743228 -22.945751,-18.911328 v -11.26275 c 23.702201,0 35.637351,10.92655 35.469251,27.232318 -0.01,6.610648 -0.1681,52.366848 -0.1681,52.366848 z"
       id="path282-1"
       sodipodi:nodetypes="cccccccc"
       style="font-size:192px;line-height:1.25;font-family:'URW Gothic';-inkscape-font-specification:'URW Gothic';letter-spacing:5.21px;white-space:pre;stroke-width:0.875525" />
    <path
       d="m 119.69761,108.65398 h 12.43945 l -0.084,49.42509 c -0.084,13.36401 5.96758,18.74323 22.94575,18.91133 v 11.26275 c -23.7022,0 -35.63735,-10.92655 -35.46925,-27.23232 0.01,-6.61065 0.1681,-52.36685 0.1681,-52.36685 z"
       id="path282-1-6"
       sodipodi:nodetypes="cccccccc"
       style="font-size:192px;line-height:1.25;font-family:'URW Gothic';-inkscape-font-specification:'URW Gothic';letter-spacing:5.21px;white-space:pre;stroke-width:0.875525" />
    <path
       d="m 257.68934,143.94695 c 0,-12.60756 -1.68101,-20.34019 -6.21973,-28.40903 -8.23693,-14.79286 -24.2065,-23.870301 -41.85708,-23.870301 -26.72802,0 -47.57251,21.012591 -47.57251,47.740611 0,27.23232 21.3488,48.58111 48.58112,48.58111 20.00398,0 37.99076,-12.94376 44.71479,-32.44344 h -12.94376 c -5.21112,12.60755 -18.15488,21.01259 -32.10724,21.01259 -18.99538,0 -34.79685,-14.45666 -35.80545,-32.61154 z M 174.81568,132.6842 c 3.36201,-17.65058 17.31437,-29.58573 34.79685,-29.58573 17.81868,0 31.26674,11.09465 35.63736,29.58573 z"
       id="path286"
       style="font-size:192px;line-height:1.25;font-family:'URW Gothic';-inkscape-font-specification:'URW Gothic';letter-spacing:5.21px;white-space:pre;stroke-width:0.875525" />
    <path
       d="m 279.39703,185.80403 h 12.43945 V 132.1799 c 0,-18.32298 9.24554,-29.08143 24.71081,-29.08143 7.56453,0 14.62476,3.02581 19.16348,8.40504 4.03442,4.70682 5.71543,11.09464 5.71543,20.67639 v 53.62413 h 12.43945 V 132.5161 c 0,-8.90934 1.34481,-14.45667 4.37062,-18.99539 4.37062,-6.55592 12.10326,-10.42224 20.84449,-10.42224 8.06884,0 15.12907,3.19391 19.33159,8.74124 3.36201,4.53872 5.04302,11.43085 5.04302,20.67639 v 53.28793 h 12.43945 v -54.63274 c 0,-12.10325 -2.18531,-19.83589 -7.39643,-26.55992 -6.38783,-8.236931 -16.81007,-12.943751 -28.74522,-12.943751 -14.28857,0 -24.20651,5.379223 -31.93914,17.650581 C 340.5857,96.878741 331.67636,91.667619 317.724,91.667619 c -11.59895,0 -18.65919,3.530115 -25.88752,12.775651 V 93.852928 h -12.43945 z"
       id="path288"
       style="font-size:192px;line-height:1.25;font-family:'URW Gothic';-inkscape-font-specification:'URW Gothic';letter-spacing:5.21px;white-space:pre;stroke-width:0.875525" />
    <path
       d="M 441.63695,185.80403 H 454.0764 V 93.852928 h -12.43945 z"
       id="path290"
       sodipodi:nodetypes="ccccc"
       style="font-size:192px;line-height:1.25;font-family:'URW Gothic';-inkscape-font-specification:'URW Gothic';letter-spacing:5.21px;white-space:pre;stroke-width:0.875525" />
    <path
       d="m 479.81873,185.80403 h 12.43945 V 132.1799 c -0.1681,-16.64198 9.07744,-26.89612 26.05561,-28.24093 V 91.667619 c -13.27995,0.672402 -21.18069,5.211122 -26.05561,15.297171 V 93.852928 h -12.43945 z"
       id="path292"
       style="font-size:192px;line-height:1.25;font-family:'URW Gothic';-inkscape-font-specification:'URW Gothic';letter-spacing:5.21px;white-space:pre;stroke-width:0.875525" />
    <path
       d="m 535.81895,185.80403 h 12.43946 V 132.1799 c -0.1681,-16.64198 9.07744,-26.89612 26.05561,-28.24093 V 91.667619 c -13.27996,0.672402 -21.18069,5.211122 -26.05561,15.297171 V 93.852928 h -12.43946 z"
       id="path294"
       style="font-size:192px;line-height:1.25;font-family:'URW Gothic';-inkscape-font-specification:'URW Gothic';letter-spacing:5.21px;white-space:pre;stroke-width:0.875525" />
    <path
       d="m 630.48253,91.667619 c -27.40042,0 -48.24491,20.676391 -48.24491,47.572511 0,28.40902 20.67639,48.74921 49.25351,48.74921 26.89612,0 46.73201,-20.34019 46.73201,-47.90871 0,-28.07282 -20.00399,-48.413011 -47.74061,-48.413011 z m 0,11.430851 c 20.34019,0 35.13305,15.63337 35.13305,37.15026 0,21.18069 -14.45666,36.30976 -34.46065,36.30976 -21.18069,0 -36.30976,-15.29717 -36.30976,-36.98216 0,-20.84449 15.29717,-36.47786 35.63736,-36.47786 z"
       id="path296"
       style="font-size:192px;line-height:1.25;font-family:'URW Gothic';-inkscape-font-specification:'URW Gothic';letter-spacing:5.21px;white-space:pre;stroke-width:0.875525" />
    <path
       d="m 700.43534,185.80403 h 12.43945 V 132.1799 c -0.1681,-16.64198 9.07744,-26.89612 26.05561,-28.24093 V 91.667619 c -13.27995,0.672402 -21.18069,5.211122 -26.05561,15.297171 V 93.852928 h -12.43945 z"
       id="path298"
       style="font-size:192px;line-height:1.25;font-family:'URW Gothic';-inkscape-font-specification:'URW Gothic';letter-spacing:5.21px;white-space:pre;stroke-width:0.875525" />
  </g>
  <metadata
     id="metadata2297">
    <rdf:RDF>
      <cc:Work
         rdf:about="">
        <cc:license
           rdf:resource="http://creativecommons.org/publicdomain/zero/1.0/" />
        <dc:title>filemirror logo</dc:title>
      </cc:Work>
      <cc:License
         rdf:about="http://creativecommons.org/publicdomain/zero/1.0/">
        <cc:permits
           rdf:resource="http://creativecommons.org/ns#Reproduction" />
        <cc:permits
           rdf:resource="http://creativecommons.org/ns#Distribution" />
        <cc:permits
           rdf:resource="http://creativecommons.org/ns#DerivativeWorks" />
      </cc:License>
    </rdf:RDF>
  </metadata>
</svg>
