<svg xmlns="http://www.w3.org/2000/svg" xmlns:xlink="http://www.w3.org/1999/xlink" width="2722.144" height="478.775" viewBox="0 0 720.234 126.676" xmlns:v="https://vecta.io/nano"><path d="M56.65 124.226h12.439V32.275H56.65zm-42.361 0h12.439V43.538H49.59V32.275H26.728C26.56 16.81 32.612 11.43 49.59 11.262V0C25.888 0 13.952 10.926 14.289 32.275H0v11.263h14.289zm98.974-44.536h-12.439l.084-49.425c.084-13.364-5.968-18.743-22.946-18.911V.091c23.702 0 35.637 10.927 35.469 27.232l-.168 52.367z"/><path d="M101.002 47.076h12.439l-.084 49.425c-.084 13.364 5.968 18.743 22.946 18.911v11.263c-23.702 0-35.637-10.927-35.469-27.232l.168-52.367zm137.991 35.293c0-12.608-1.681-20.34-6.22-28.409-8.237-14.793-24.207-23.87-41.857-23.87-26.728 0-47.573 21.013-47.573 47.741 0 27.232 21.349 48.581 48.581 48.581 20.004 0 37.991-12.944 44.715-32.443h-12.944c-5.211 12.608-18.155 21.013-32.107 21.013-18.995 0-34.797-14.457-35.805-32.612zM156.12 71.106c3.362-17.651 17.314-29.586 34.797-29.586 17.819 0 31.267 11.095 35.637 29.586zm104.581 53.12h12.439V70.602c0-18.323 9.246-29.081 24.711-29.081 7.565 0 14.625 3.026 19.163 8.405 4.034 4.707 5.715 11.095 5.715 20.676v53.624h12.439V70.938c0-8.909 1.345-14.457 4.371-18.995 4.371-6.556 12.103-10.422 20.844-10.422 8.069 0 15.129 3.194 19.332 8.741 3.362 4.539 5.043 11.431 5.043 20.676v53.288h12.439V69.593c0-12.103-2.185-19.836-7.396-26.56-6.388-8.237-16.81-12.944-28.745-12.944-14.289 0-24.207 5.379-31.939 17.651-7.228-12.439-16.138-17.651-30.09-17.651-11.599 0-18.659 3.53-25.888 12.776v-10.59H260.7zm162.24 0h12.439V32.275h-12.439z"/><use xlink:href="#B"/><use xlink:href="#B" x="56"/><path d="M611.787 30.09c-27.4 0-48.245 20.676-48.245 47.573 0 28.409 20.676 48.749 49.254 48.749 26.896 0 46.732-20.34 46.732-47.909 0-28.073-20.004-48.413-47.741-48.413zm0 11.431c20.34 0 35.133 15.633 35.133 37.15 0 21.181-14.457 36.31-34.461 36.31-21.181 0-36.31-15.297-36.31-36.982 0-20.844 15.297-36.478 35.637-36.478z"/><use xlink:href="#B" x="220.616"/><defs ><path id="B" d="M461.123 124.226h12.439V70.602c-.168-16.642 9.077-26.896 26.056-28.241V30.09c-13.28.672-21.181 5.211-26.056 15.297V32.275h-12.439z"/></defs></svg>